<?xml version="1.0" standalone="no"?>
<!DOCTYPE svg PUBLIC "-//W3C//DTD SVG 20010904//EN"
 "http://www.w3.org/TR/2001/REC-SVG-20010904/DTD/svg10.dtd">
<svg version="1.0" xmlns="http://www.w3.org/2000/svg"
 width="512.000000pt" height="512.000000pt" viewBox="0 0 512.000000 512.000000"
 preserveAspectRatio="xMidYMid meet">

<g transform="translate(0.000000,512.000000) scale(0.100000,-0.100000)"
fill="#ffffff" stroke="none">
<path d="M3129 4877 c-255 -70 -427 -122 -445 -134 -72 -52 -107 -117 -106
-198 0 -34 180 -721 561 -2145 309 -1152 567 -2108 573 -2124 17 -43 65 -94
110 -117 83 -42 102 -40 513 70 209 56 404 109 434 119 105 32 173 122 173
227 0 34 -176 708 -561 2145 -309 1152 -567 2108 -573 2124 -17 44 -65 94
-111 118 -84 42 -115 38 -568 -85z m506 -69 c23 -21 80 -226 585 -2112 308
-1149 560 -2104 560 -2123 0 -18 -8 -41 -18 -51 -11 -11 -165 -57 -426 -127
-382 -102 -410 -108 -434 -94 -15 8 -32 26 -39 39 -20 38 -1123 4169 -1123
4205 0 17 6 39 13 49 9 13 130 50 413 126 219 60 409 109 421 109 12 1 34 -9
48 -21z"/>
<path d="M3255 4414 c-195 -53 -244 -70 -262 -90 -13 -14 -23 -32 -23 -40 0
-8 58 -232 130 -497 137 -510 140 -517 197 -517 14 0 133 29 266 65 258 70
277 79 277 136 0 15 -56 239 -125 496 -108 402 -129 471 -151 491 -14 12 -35
22 -47 21 -12 0 -130 -30 -262 -65z"/>
<path d="M3623 3021 c-155 -42 -284 -79 -288 -82 -6 -7 24 -129 35 -142 6 -6
610 147 616 156 1 1 -8 35 -19 75 -17 61 -23 72 -41 71 -12 -1 -148 -35 -303
-78z"/>
<path d="M3750 2558 c-162 -44 -296 -81 -298 -82 -1 -2 2 -16 7 -32 6 -16 15
-48 21 -71 7 -30 16 -43 28 -43 9 0 148 36 307 79 281 76 290 79 287 102 -5
50 -33 129 -45 128 -7 0 -145 -37 -307 -81z"/>
<path d="M3885 2097 c-165 -44 -302 -82 -304 -84 -5 -3 29 -135 38 -145 5 -6
600 147 610 157 5 6 -30 144 -38 149 -3 2 -141 -33 -306 -77z"/>
<path d="M4003 1632 c-148 -41 -250 -74 -262 -86 -12 -11 -21 -32 -21 -47 0
-15 47 -205 105 -421 90 -334 109 -396 131 -415 14 -13 32 -23 41 -23 9 0 127
29 262 65 203 54 250 70 269 91 12 14 22 32 22 40 0 11 -194 744 -216 817 -6
18 -54 48 -76 46 -7 0 -122 -31 -255 -67z"/>
<path d="M320 4947 c-49 -16 -133 -102 -148 -153 -18 -60 -18 -4408 0 -4468
16 -55 99 -138 154 -154 57 -17 896 -17 945 0 19 6 46 20 62 30 27 19 27 19
55 0 15 -10 42 -24 61 -30 49 -17 888 -17 945 0 55 16 138 99 154 154 18 60
18 4408 0 4468 -16 55 -99 138 -154 154 -57 17 -896 17 -945 0 -19 -6 -46 -20
-61 -30 -28 -19 -28 -19 -55 0 -16 10 -43 24 -62 30 -46 16 -901 15 -951 -1z
m935 -172 l25 -24 0 -2191 0 -2191 -25 -24 -24 -25 -431 0 -431 0 -24 25 -25
24 0 2191 0 2191 25 24 24 25 431 0 431 0 24 -25z m1120 0 l25 -24 0 -2191 0
-2191 -25 -24 -24 -25 -431 0 -431 0 -24 25 -25 24 0 2191 0 2191 25 24 24 25
431 0 431 0 24 -25z"/>
<path d="M505 4455 l-25 -24 0 -511 0 -511 25 -24 24 -25 271 0 271 0 24 25
25 24 0 511 0 511 -25 24 -24 25 -271 0 -271 0 -24 -25z"/>
<path d="M480 2960 l0 -80 320 0 320 0 0 80 0 80 -320 0 -320 0 0 -80z"/>
<path d="M480 2480 l0 -80 320 0 320 0 0 80 0 80 -320 0 -320 0 0 -80z"/>
<path d="M480 2000 l0 -80 320 0 320 0 0 80 0 80 -320 0 -320 0 0 -80z"/>
<path d="M505 1575 l-25 -24 0 -431 0 -431 25 -24 24 -25 271 0 271 0 24 25
25 24 0 431 0 431 -25 24 -24 25 -271 0 -271 0 -24 -25z"/>
<path d="M1625 4455 l-25 -24 0 -511 0 -511 25 -24 24 -25 271 0 271 0 24 25
25 24 0 511 0 511 -25 24 -24 25 -271 0 -271 0 -24 -25z"/>
<path d="M1600 2960 l0 -80 320 0 320 0 0 80 0 80 -320 0 -320 0 0 -80z"/>
<path d="M1600 2480 l0 -80 320 0 320 0 0 80 0 80 -320 0 -320 0 0 -80z"/>
<path d="M1600 2000 l0 -80 320 0 320 0 0 80 0 80 -320 0 -320 0 0 -80z"/>
<path d="M1625 1575 l-25 -24 0 -431 0 -431 25 -24 24 -25 271 0 271 0 24 25
25 24 0 431 0 431 -25 24 -24 25 -271 0 -271 0 -24 -25z"/>
</g>
</svg>
