<?xml version="1.0" standalone="no"?>
<!DOCTYPE svg PUBLIC "-//W3C//DTD SVG 20010904//EN"
 "http://www.w3.org/TR/2001/REC-SVG-20010904/DTD/svg10.dtd">
<svg version="1.0" xmlns="http://www.w3.org/2000/svg"
 width="512.000000pt" height="512.000000pt" viewBox="0 0 512.000000 512.000000"
 preserveAspectRatio="xMidYMid meet">

<g transform="translate(0.000000,512.000000) scale(0.100000,-0.100000)"
fill="#ffffff" stroke="none">
<path d="M1415 4786 c-37 -16 -70 -52 -84 -89 -6 -16 -11 -96 -11 -178 0 -171
8 -201 66 -245 l37 -29 618 0 c608 0 618 0 645 21 67 49 69 58 69 253 l0 178
-29 37 c-51 68 -31 66 -688 66 -472 -1 -599 -4 -623 -14z m1185 -266 l0 -120
-560 0 -560 0 0 120 0 120 560 0 560 0 0 -120z"/>
<path d="M600 4587 c-49 -16 -133 -102 -148 -153 -18 -60 -18 -3888 0 -3948
16 -55 99 -138 154 -154 32 -9 370 -12 1436 -12 1577 0 1453 -6 1531 80 24 26
49 66 55 88 8 25 12 121 12 271 l0 232 -25 24 c-32 33 -78 33 -110 0 l-25 -24
0 -231 0 -231 -25 -24 -24 -25 -1391 0 -1391 0 -24 25 -25 24 0 1931 0 1931
25 24 24 25 231 0 231 0 24 25 c33 32 33 78 0 110 l-24 25 -238 -1 c-143 -1
-252 -5 -273 -12z"/>
<path d="M2945 4575 c-16 -15 -25 -36 -25 -55 0 -19 9 -40 25 -55 l24 -25 231
0 231 0 24 -25 25 -24 0 -371 0 -371 25 -24 c32 -33 78 -33 110 0 l25 24 0
372 c0 263 -4 384 -12 413 -8 26 -31 60 -63 91 -31 32 -65 55 -91 63 -27 8
-120 12 -273 12 l-232 0 -24 -25z"/>
<path d="M785 3495 c-16 -15 -25 -36 -25 -55 0 -19 9 -40 25 -55 l24 -25 1006
0 1006 0 24 25 c16 15 25 36 25 55 0 19 -9 40 -25 55 l-24 25 -1006 0 -1006 0
-24 -25z"/>
<path d="M3380 3425 c-276 -44 -542 -204 -711 -427 -496 -659 -143 -1598 666
-1774 176 -38 394 -26 574 33 173 56 369 184 484 316 396 455 378 1116 -43
1537 -256 256 -612 371 -970 315z m415 -175 c183 -49 305 -120 440 -255 136
-137 206 -259 256 -445 30 -110 33 -337 6 -444 -47 -186 -125 -324 -262 -461
-179 -178 -373 -267 -620 -281 -404 -24 -786 216 -943 591 -50 122 -67 212
-66 365 0 160 13 229 65 359 89 223 289 428 506 520 148 63 249 81 418 76 81
-2 146 -11 200 -25z"/>
<path d="M3488 3146 c-84 -31 -139 -93 -157 -177 -15 -67 -15 -672 0 -739 14
-64 61 -127 119 -160 36 -20 59 -25 116 -25 61 0 77 4 120 30 30 19 60 49 79
79 l30 49 0 397 0 397 -30 49 c-57 92 -181 137 -277 100z m126 -167 l26 -20 0
-359 0 -359 -26 -20 c-35 -28 -67 -26 -101 3 l-28 24 0 352 0 352 28 24 c34
29 66 31 101 3z"/>
<path d="M3488 1946 c-56 -20 -85 -42 -117 -87 -84 -115 -46 -279 79 -349 36
-20 59 -25 116 -25 61 0 77 4 120 30 30 19 60 49 79 79 27 44 30 58 30 126 0
68 -3 82 -30 126 -57 92 -181 137 -277 100z m126 -167 c37 -29 37 -89 0 -118
-35 -27 -66 -26 -100 2 -20 17 -27 33 -27 57 0 24 7 40 27 57 34 28 65 29 100
2z"/>
<path d="M785 2695 c-16 -15 -25 -36 -25 -55 0 -19 9 -40 25 -55 l24 -25 728
0 c557 1 732 4 744 13 44 34 47 89 7 127 -21 20 -32 20 -750 20 l-729 0 -24
-25z"/>
<path d="M785 1895 c-16 -15 -25 -36 -25 -55 0 -19 9 -40 25 -55 l24 -25 751
0 752 0 29 29 c37 37 37 65 0 102 l-29 29 -752 0 -751 0 -24 -25z"/>
<path d="M785 1095 c-16 -15 -25 -36 -25 -55 0 -19 9 -40 25 -55 l24 -25 1161
0 1161 0 24 25 c16 15 25 36 25 55 0 19 -9 40 -25 55 l-24 25 -1161 0 -1161 0
-24 -25z"/>
</g>
</svg>
