<?xml version="1.0" standalone="no"?>
<!DOCTYPE svg PUBLIC "-//W3C//DTD SVG 20010904//EN"
 "http://www.w3.org/TR/2001/REC-SVG-20010904/DTD/svg10.dtd">
<svg version="1.0" xmlns="http://www.w3.org/2000/svg"
 width="512.000000pt" height="512.000000pt" viewBox="0 0 512.000000 512.000000"
 preserveAspectRatio="xMidYMid meet">

<g transform="translate(0.000000,512.000000) scale(0.100000,-0.100000)"
fill="#ffffff" stroke="none">
<path d="M1883 5105 c-129 -35 -246 -128 -305 -241 l-33 -64 -200 0 c-148 0
-216 -4 -260 -15 -172 -45 -305 -179 -350 -352 -23 -86 -23 -3980 0 -4066 45
-173 178 -307 350 -352 52 -13 236 -15 1475 -15 1558 0 1470 -3 1591 61 70 38
157 126 193 197 59 117 56 -13 56 2142 0 2176 4 2028 -61 2151 -38 70 -126
157 -197 193 -94 48 -149 56 -367 56 l-200 0 -33 64 c-60 115 -177 207 -309
241 -82 21 -1271 21 -1350 0z m1323 -331 c53 -39 69 -71 69 -134 0 -63 -16
-95 -69 -134 -27 -21 -39 -21 -624 -24 -401 -2 -609 0 -634 8 -101 29 -140
168 -71 251 51 60 32 59 695 56 595 -2 607 -2 634 -23z m-1628 -358 c60 -115
177 -207 309 -241 85 -22 1261 -22 1346 0 133 34 250 126 309 241 l33 65 202
-3 c221 -3 227 -5 277 -72 l21 -27 0 -1979 0 -1979 -21 -27 c-11 -15 -33 -37
-48 -48 -27 -21 -29 -21 -1446 -21 -1417 0 -1419 0 -1446 21 -15 11 -37 33
-48 48 l-21 27 -3 1952 c-1 1074 0 1966 3 1984 7 40 49 91 90 109 21 9 85 13
220 14 l190 0 33 -64z"/>
<path d="M3475 3412 c-17 -11 -280 -346 -614 -786 -322 -422 -588 -769 -591
-771 -4 -2 -118 115 -253 260 -264 282 -278 293 -360 282 -100 -14 -164 -125
-124 -217 16 -37 618 -687 664 -717 40 -26 133 -24 170 3 28 21 1303 1686
1330 1738 35 67 9 159 -57 203 -42 29 -122 31 -165 5z"/>
</g>
</svg>
